<?xml version="1.0" standalone="no"?>
<!DOCTYPE svg PUBLIC "-//W3C//DTD SVG 20010904//EN"
 "http://www.w3.org/TR/2001/REC-SVG-20010904/DTD/svg10.dtd">
<svg version="1.0" xmlns="http://www.w3.org/2000/svg"
 width="934.000000pt" height="934.000000pt" viewBox="0 0 934.000000 934.000000"
 preserveAspectRatio="xMidYMid meet">
<metadata>
Created by potrace 1.14, written by Peter Selinger 2001-2017
</metadata>
<g transform="translate(0.000000,934.000000) scale(0.100000,-0.100000)"
fill="#000000" stroke="none">
<path d="M4616 9313 c-1 -1 -55 -3 -121 -4 -66 -2 -125 -7 -132 -11 -6 -5 -14
-5 -18 2 -4 6 -12 7 -23 1 -10 -5 -45 -9 -79 -8 -34 1 -59 -1 -56 -5 5 -9 7
-8 -67 -13 -30 -1 -75 -6 -100 -10 -25 -4 -51 -8 -57 -8 -7 0 -13 -4 -13 -8 0
-4 -9 -5 -19 -2 -10 3 -29 -1 -41 -7 -18 -10 -21 -9 -15 1 6 8 4 10 -6 3 -8
-5 -25 -10 -39 -12 -39 -5 -54 -8 -72 -16 -9 -4 -22 -5 -28 -1 -5 3 -10 0 -10
-7 0 -11 -2 -10 -9 0 -7 11 -9 11 -14 -1 -3 -9 -16 -13 -31 -12 -14 2 -26 0
-26 -5 0 -4 -8 -6 -19 -3 -10 3 -22 0 -26 -7 -5 -8 -10 -8 -21 1 -11 9 -14 8
-14 -3 0 -11 -7 -14 -26 -10 -18 3 -25 1 -20 -6 4 -7 -1 -10 -13 -7 -10 2 -29
-2 -43 -9 -13 -7 -29 -11 -36 -8 -6 2 -12 -1 -12 -6 0 -6 -9 -8 -20 -5 -11 3
-20 1 -20 -5 0 -6 -8 -10 -17 -10 -26 1 -46 -5 -61 -19 -7 -7 -19 -10 -27 -6
-9 3 -21 1 -28 -5 -6 -5 -27 -13 -44 -17 -18 -3 -33 -10 -33 -14 0 -4 -9 -8
-20 -9 -44 -4 -50 -6 -50 -14 0 -5 -4 -7 -9 -3 -5 3 -12 1 -16 -5 -4 -6 -11
-8 -16 -5 -5 4 -9 1 -9 -4 0 -6 -8 -11 -18 -11 -10 0 -28 -8 -41 -17 -14 -9
-21 -11 -17 -4 4 6 -9 2 -28 -9 -20 -11 -38 -20 -41 -20 -3 0 -10 0 -16 0 -5
0 -8 -4 -5 -9 4 -5 -4 -7 -16 -3 -16 4 -19 2 -13 -8 6 -10 4 -12 -9 -7 -10 4
-19 1 -22 -8 -3 -7 -12 -11 -20 -8 -8 3 -14 0 -14 -7 0 -6 -4 -8 -10 -5 -5 3
-10 1 -10 -4 0 -6 -5 -11 -11 -11 -5 0 -7 6 -4 13 4 6 -2 3 -12 -9 -10 -11
-25 -18 -32 -16 -8 3 -11 0 -7 -7 5 -7 1 -9 -8 -5 -9 3 -16 1 -16 -5 0 -6 -9
-11 -21 -11 -13 0 -18 -4 -13 -12 4 -6 3 -8 -4 -4 -6 3 -16 0 -24 -7 -7 -8
-18 -12 -24 -10 -7 2 -18 -3 -27 -11 -8 -8 -17 -12 -21 -9 -3 4 -6 1 -6 -6 0
-7 -4 -10 -9 -6 -6 3 -14 -3 -20 -12 -6 -11 -11 -13 -11 -5 0 10 -4 10 -16 -2
-8 -9 -20 -16 -25 -16 -6 0 -7 -5 -3 -12 5 -8 2 -9 -9 -5 -10 3 -17 2 -17 -4
0 -6 -4 -7 -10 -4 -5 3 -10 1 -10 -5 0 -6 -4 -8 -10 -5 -5 3 -10 2 -10 -2 0
-5 -9 -14 -21 -21 -17 -11 -20 -11 -13 0 4 7 -5 0 -21 -15 -16 -15 -33 -26
-39 -24 -6 2 -20 -7 -32 -20 -11 -12 -24 -19 -28 -15 -4 4 -12 -1 -17 -11 -6
-9 -17 -17 -24 -17 -8 0 -15 -4 -15 -10 0 -5 -7 -10 -15 -10 -8 0 -15 -5 -15
-11 0 -5 -4 -7 -10 -4 -5 3 -10 1 -10 -6 0 -7 -3 -10 -6 -6 -3 3 -16 -5 -28
-17 -11 -13 -28 -21 -36 -18 -8 3 -12 1 -8 -3 7 -7 -55 -55 -72 -55 -5 0 -16
-10 -25 -22 -8 -13 -18 -22 -20 -20 -11 5 -28 2 -22 -5 4 -3 -3 -13 -16 -22
-12 -9 -22 -13 -22 -11 -1 3 -15 -9 -32 -27 -17 -17 -34 -29 -37 -26 -3 4 -6
2 -6 -3 0 -5 -14 -18 -30 -28 -17 -9 -28 -22 -25 -27 4 -5 0 -9 -8 -9 -8 0
-29 -13 -47 -30 -18 -16 -36 -30 -42 -30 -5 0 -6 -4 -3 -10 3 -5 1 -10 -5 -10
-6 0 -25 -16 -44 -35 -18 -19 -36 -32 -39 -29 -3 3 -8 -4 -12 -15 -3 -12 -10
-21 -15 -21 -14 0 -240 -227 -233 -234 4 -3 2 -6 -3 -6 -6 0 -19 -7 -30 -16
-10 -8 -12 -12 -4 -8 8 4 -5 -12 -28 -35 -24 -22 -40 -41 -36 -41 4 0 -9 -15
-29 -34 -20 -18 -33 -36 -30 -40 4 -3 -1 -6 -11 -6 -9 0 -14 -5 -11 -10 3 -6
-1 -13 -9 -16 -9 -3 -16 -13 -16 -21 0 -8 -4 -12 -8 -9 -4 3 -19 -13 -32 -35
-14 -21 -29 -39 -34 -39 -5 0 -7 -3 -3 -6 3 -3 -5 -17 -18 -30 -13 -13 -32
-37 -41 -54 -10 -16 -22 -30 -26 -30 -4 0 -8 -5 -8 -10 0 -11 -9 -24 -42 -60
-9 -10 -14 -21 -11 -24 3 -3 -2 -8 -11 -12 -9 -3 -13 -10 -10 -15 3 -5 -2 -12
-10 -15 -9 -3 -13 -10 -10 -15 3 -5 1 -9 -3 -9 -5 0 -19 -20 -33 -45 -14 -25
-28 -45 -32 -45 -5 0 -8 -5 -8 -12 0 -6 -8 -20 -17 -31 -13 -15 -14 -18 -3
-13 8 4 5 -1 -6 -11 -12 -10 -25 -28 -29 -40 -3 -13 -11 -23 -16 -23 -5 0 -8
-4 -6 -9 1 -5 -7 -17 -18 -26 -11 -9 -14 -14 -7 -10 14 7 17 -11 2 -20 -6 -4
-8 -11 -4 -16 3 -5 0 -8 -8 -7 -7 2 -12 -5 -12 -14 1 -10 -4 -18 -12 -18 -8 0
-13 -3 -12 -7 1 -5 -3 -18 -10 -29 -6 -12 -8 -24 -5 -28 3 -3 -1 -6 -10 -6
-10 0 -14 -5 -11 -15 4 -8 1 -15 -5 -15 -6 0 -11 -3 -10 -7 2 -16 -14 -53 -22
-53 -5 0 -9 -9 -9 -20 0 -11 -5 -20 -11 -20 -5 0 -7 -4 -4 -10 3 -5 1 -10 -6
-10 -7 0 -9 -3 -6 -6 3 -4 0 -16 -8 -28 -8 -11 -15 -29 -15 -39 0 -10 -4 -16
-9 -12 -6 3 -8 -4 -6 -15 2 -11 0 -20 -4 -20 -9 0 -24 -38 -22 -52 1 -5 -6 -8
-15 -8 -14 0 -14 -3 -4 -15 9 -10 9 -15 1 -15 -6 0 -11 -7 -11 -15 0 -8 -4
-15 -10 -15 -5 0 -7 -7 -4 -15 4 -8 1 -15 -7 -15 -7 0 -9 -3 -6 -7 4 -3 1 -13
-6 -21 -10 -13 -9 -15 3 -8 8 4 7 1 -4 -8 -10 -8 -15 -19 -11 -25 3 -6 1 -11
-6 -11 -7 0 -9 -3 -6 -7 4 -3 0 -17 -8 -30 -9 -13 -13 -28 -10 -33 3 -6 1 -10
-5 -10 -6 0 -9 -4 -5 -9 3 -5 1 -13 -5 -16 -6 -4 -8 -16 -4 -28 3 -12 3 -18
-2 -14 -10 9 -36 -72 -27 -86 3 -6 1 -7 -5 -3 -8 5 -12 -2 -12 -18 0 -14 -4
-26 -8 -26 -5 0 -8 -13 -7 -29 1 -19 -3 -27 -10 -25 -8 3 -10 -5 -7 -26 2 -17
0 -30 -6 -30 -6 0 -9 -9 -7 -20 2 -11 0 -20 -4 -20 -5 0 -11 -19 -15 -42 -4
-24 -14 -54 -23 -67 -8 -13 -10 -20 -4 -17 13 9 14 -4 1 -24 -5 -9 -5 -19 2
-27 8 -10 7 -12 -6 -7 -12 5 -15 2 -10 -10 3 -9 1 -23 -6 -31 -9 -11 -9 -15
-1 -15 8 0 7 -7 -3 -22 -12 -17 -13 -25 -3 -37 9 -11 9 -13 0 -8 -6 4 -14 3
-18 -3 -3 -5 -1 -10 5 -10 6 0 8 -5 3 -12 -4 -7 -9 -20 -10 -28 -2 -8 -5 -28
-8 -45 -3 -16 -6 -40 -6 -52 1 -13 -5 -23 -12 -23 -8 0 -7 -4 3 -10 8 -5 10
-10 4 -10 -6 0 -10 -10 -10 -22 1 -13 -2 -31 -6 -40 -6 -12 -5 -18 4 -18 6 0
4 -6 -7 -13 -12 -10 -15 -16 -6 -21 7 -5 8 -13 2 -24 -4 -9 -7 -25 -6 -34 2
-10 -2 -18 -8 -18 -7 0 -5 -5 3 -10 13 -9 13 -10 0 -10 -12 0 -13 -2 -1 -9 9
-6 10 -14 5 -22 -5 -8 -10 -27 -11 -44 -4 -57 -9 -90 -17 -112 -4 -13 -4 -23
1 -23 9 0 10 -40 1 -56 -2 -5 -4 -42 -4 -82 1 -39 -2 -72 -6 -72 -3 0 -3 -12
1 -27 4 -16 4 -45 1 -65 -4 -21 -5 -40 -2 -43 9 -9 8 -105 -2 -105 -4 0 -4 -6
1 -12 5 -7 8 -25 7 -41 -2 -19 1 -25 9 -20 9 5 9 3 0 -8 -12 -15 -11 -48 3
-71 4 -7 3 -8 -4 -4 -9 5 -9 0 -2 -18 6 -17 6 -26 -3 -30 -9 -3 -8 -5 1 -5 7
-1 10 -5 7 -11 -3 -6 -3 -15 1 -21 4 -7 7 -40 7 -75 0 -35 4 -61 8 -58 13 8
11 -10 -3 -24 -8 -8 -8 -12 -1 -12 6 0 11 -6 10 -12 -2 -57 4 -89 16 -82 9 6
9 4 2 -7 -9 -12 -11 -34 -5 -49 3 -9 10 -44 14 -77 2 -18 7 -37 10 -42 4 -5 1
-13 -5 -17 -8 -5 -4 -13 12 -26 13 -11 18 -17 12 -13 -17 8 -17 -17 0 -34 9
-11 9 -13 -1 -7 -6 4 -12 2 -12 -3 0 -6 5 -11 11 -11 6 0 9 -9 6 -20 -3 -11 1
-26 8 -34 10 -10 11 -16 2 -25 -8 -8 -8 -11 1 -11 6 0 9 -7 6 -15 -4 -8 -1
-15 5 -15 6 0 11 -5 11 -11 0 -5 -6 -7 -12 -3 -9 5 -9 2 1 -9 7 -9 10 -17 6
-17 -4 0 -2 -7 5 -15 7 -8 9 -15 4 -15 -5 0 -2 -5 6 -10 13 -9 13 -11 0 -19
-13 -9 -13 -11 1 -16 8 -3 16 -20 17 -37 2 -17 8 -38 15 -47 10 -12 9 -13 -3
-6 -12 6 -13 5 -2 -6 6 -7 12 -24 12 -37 0 -13 4 -21 8 -18 4 3 9 -11 9 -31 1
-20 5 -38 10 -42 8 -6 11 -14 19 -55 2 -11 8 -24 13 -29 5 -5 7 -16 4 -23 -3
-8 -1 -14 5 -14 5 0 13 -7 16 -16 5 -14 4 -15 -9 -4 -13 11 -14 10 -9 -4 3 -9
10 -16 16 -16 5 0 6 -4 3 -10 -3 -5 -1 -10 5 -10 6 0 9 -4 5 -9 -3 -5 2 -17
11 -25 11 -12 12 -16 2 -16 -11 0 -11 -2 0 -9 8 -4 13 -11 13 -15 -3 -20 0
-26 11 -20 7 4 8 3 4 -5 -4 -6 -2 -19 6 -28 11 -14 11 -16 -2 -8 -12 7 -11 3
2 -18 10 -14 18 -33 18 -42 0 -9 7 -18 15 -21 8 -4 12 -10 9 -15 -3 -6 -1 -15
4 -22 5 -7 8 -20 7 -29 -2 -10 2 -16 8 -15 6 1 13 -9 15 -23 2 -14 8 -27 12
-30 4 -3 10 -14 12 -25 1 -11 9 -26 16 -33 7 -8 10 -18 7 -23 -4 -5 -1 -9 6
-9 7 0 9 -3 6 -7 -4 -3 1 -12 11 -19 13 -10 14 -13 3 -14 -11 0 -10 -4 4 -13
11 -9 15 -19 10 -27 -5 -9 -4 -11 3 -6 11 6 16 -6 13 -26 0 -5 3 -8 9 -8 5 0
10 -9 10 -20 0 -11 3 -20 8 -20 7 0 38 -62 33 -68 -1 -2 8 -12 20 -23 13 -11
17 -19 9 -19 -7 0 -3 -9 10 -20 13 -11 20 -20 16 -20 -4 0 0 -7 8 -16 9 -8 16
-24 16 -35 0 -11 4 -17 10 -14 5 3 10 -1 10 -9 0 -9 5 -16 11 -16 5 0 8 -4 4
-9 -3 -5 6 -21 20 -35 16 -16 20 -26 12 -29 -7 -3 -3 -6 7 -6 11 -1 17 -4 13
-7 -3 -4 8 -27 26 -53 17 -25 31 -48 31 -51 0 -5 22 -32 43 -55 7 -8 13 -16
13 -19 0 -13 48 -75 54 -69 3 4 6 -2 6 -13 0 -11 9 -26 20 -34 11 -8 20 -18
20 -22 0 -8 29 -44 62 -79 9 -9 19 -26 23 -38 3 -12 13 -21 21 -21 8 0 14 -5
14 -11 0 -5 13 -24 30 -42 16 -18 30 -38 30 -45 0 -7 5 -10 10 -7 6 3 10 2 10
-3 0 -17 210 -239 222 -234 5 1 8 -2 8 -8 0 -12 48 -60 61 -60 6 0 7 -5 4 -10
-3 -6 5 -14 19 -20 14 -5 26 -17 26 -25 0 -9 4 -13 10 -10 5 3 10 -1 10 -9 0
-9 4 -16 9 -16 5 0 23 -13 41 -30 18 -16 36 -30 41 -30 5 0 9 -7 9 -16 0 -8 4
-13 8 -10 5 3 15 -4 22 -15 8 -10 24 -19 35 -19 16 0 17 -2 5 -10 -8 -5 -10
-10 -4 -10 6 0 24 -11 39 -24 16 -14 34 -22 39 -19 6 3 8 3 4 -1 -8 -10 14
-36 25 -29 4 2 7 -1 7 -7 0 -6 12 -15 26 -20 14 -6 23 -14 19 -19 -6 -10 33
-27 50 -22 6 1 7 -1 2 -5 -11 -11 33 -53 49 -47 8 3 14 1 14 -5 0 -12 49 -45
67 -45 7 0 10 -4 7 -9 -3 -4 -1 -8 4 -8 4 0 18 -9 30 -20 12 -12 22 -18 22
-15 0 4 7 0 15 -7 33 -30 45 -38 45 -32 0 3 15 -5 34 -20 19 -14 39 -26 45
-26 6 0 11 -4 11 -9 0 -5 14 -14 30 -21 17 -7 30 -17 30 -23 0 -6 3 -8 6 -4 3
3 23 -5 44 -18 21 -13 41 -21 44 -18 3 4 6 1 6 -6 0 -7 5 -9 10 -6 6 3 10 -1
10 -9 0 -9 3 -15 7 -14 11 3 86 -34 94 -45 4 -6 14 -7 24 -4 9 4 14 3 11 -2
-5 -8 32 -30 45 -27 4 0 17 -8 30 -19 14 -13 20 -14 15 -5 -4 8 0 6 8 -4 9
-11 16 -16 16 -11 0 4 9 0 19 -9 11 -10 25 -15 30 -11 6 3 11 2 11 -4 0 -5 10
-13 23 -16 21 -7 94 -38 130 -57 10 -5 22 -6 27 -3 6 4 10 0 10 -8 0 -10 7
-13 20 -10 11 3 20 0 20 -6 0 -6 11 -11 25 -11 14 0 25 -4 25 -10 0 -5 8 -10
18 -10 10 0 23 -5 30 -12 7 -7 12 -9 12 -5 0 4 13 1 29 -7 16 -9 31 -12 35 -9
3 4 6 1 6 -6 0 -7 4 -10 9 -6 9 5 23 0 86 -26 11 -4 29 -10 40 -11 11 -2 23
-6 26 -10 3 -5 17 -9 32 -10 15 -1 27 -7 27 -12 0 -5 3 -6 7 -3 3 4 12 2 20
-4 10 -9 13 -8 13 2 1 11 4 10 13 -2 7 -9 22 -14 34 -13 12 2 25 -1 28 -6 4
-6 11 -8 16 -5 5 4 9 1 9 -6 0 -7 3 -9 7 -6 3 4 12 2 20 -4 10 -9 13 -8 13 2
0 8 6 6 16 -7 8 -10 12 -13 8 -5 -6 11 -3 13 12 7 29 -12 57 -18 77 -18 9 1
15 -3 13 -7 -3 -4 9 -7 25 -6 17 1 37 -4 45 -12 11 -12 14 -12 14 -1 0 8 3 9
8 3 4 -5 23 -11 42 -13 19 -1 39 -7 44 -12 5 -5 16 -5 27 0 12 7 20 6 24 0 4
-6 11 -8 16 -5 5 4 9 0 9 -7 0 -9 3 -9 10 2 7 11 10 11 10 2 0 -7 4 -11 9 -7
5 3 12 1 16 -5 4 -7 12 -7 26 0 14 8 19 7 19 -1 0 -6 9 -9 20 -6 11 3 20 0 20
-6 0 -7 5 -5 10 3 9 13 10 13 10 0 0 -12 2 -12 9 -1 6 9 11 10 15 3 4 -6 14
-8 23 -5 9 4 14 2 11 -3 -3 -5 16 -10 43 -10 33 -1 47 2 43 10 -3 6 1 3 9 -7
10 -12 17 -14 22 -7 3 5 12 7 18 3 16 -10 806 -11 835 -1 15 5 22 4 22 -5 0
-8 3 -8 8 -2 4 6 32 10 64 10 31 0 54 3 52 6 -2 3 10 6 27 7 17 0 33 3 36 6 3
3 15 1 26 -5 12 -7 17 -7 13 -1 -3 5 1 12 9 16 8 3 15 1 15 -5 0 -6 6 -7 13
-2 16 10 35 14 75 15 17 1 32 4 32 8 0 4 16 6 34 5 19 -1 33 2 30 7 -3 4 2 8
11 8 10 0 13 -5 9 -12 -4 -7 8 -1 26 12 18 13 31 19 27 13 -4 -6 0 -13 8 -16
9 -4 12 -1 9 8 -4 9 2 13 20 11 14 -2 26 0 26 5 0 4 9 6 20 4 11 -2 22 0 25 5
3 5 14 7 25 5 11 -2 20 0 20 5 0 5 9 7 20 5 11 -2 22 0 25 5 3 5 12 7 19 4 8
-3 17 0 21 5 3 6 11 9 16 6 5 -4 9 -2 9 4 0 5 8 8 18 6 9 -1 22 2 29 7 7 5 17
7 23 3 5 -3 10 -1 10 6 0 7 3 9 7 6 3 -4 13 -1 21 6 13 10 14 9 7 -3 -7 -12
-6 -13 6 -4 11 9 40 19 79 29 3 0 15 6 28 13 18 10 22 10 22 0 1 -8 6 -6 14 5
8 10 17 18 20 17 4 -1 31 6 62 15 37 11 53 20 48 28 -5 9 -4 9 6 0 13 -12 46
-1 62 22 4 6 8 7 8 2 0 -4 12 -1 28 6 15 8 33 12 40 10 6 -3 12 0 12 5 0 9 47
27 63 24 4 -1 7 2 7 7 0 9 48 26 63 23 4 -1 7 2 7 7 0 10 69 37 83 33 4 -1 7
2 7 8 0 5 6 10 14 10 8 0 22 7 30 16 9 8 20 13 25 9 6 -3 14 2 19 11 5 9 13
15 18 15 19 -2 44 11 39 20 -3 5 1 6 9 3 10 -4 16 -1 16 7 0 7 3 9 7 6 3 -4
17 0 30 8 13 9 23 12 23 8 0 -5 5 0 11 10 6 9 14 15 20 12 5 -4 9 -2 9 3 0 6
14 15 30 21 17 5 30 15 30 20 0 6 3 10 8 10 20 -3 32 2 26 13 -5 7 -3 8 6 3 8
-5 18 -1 27 10 7 11 13 15 13 11 0 -4 21 7 48 26 26 18 59 39 75 47 15 8 27
18 27 23 0 5 4 7 10 3 5 -3 18 3 30 15 11 11 24 20 29 20 5 0 16 10 25 22 9
13 14 16 11 8 -4 -8 1 -6 9 4 9 11 16 16 16 10 0 -5 10 2 21 16 11 14 18 18
14 10 -4 -10 -1 -9 8 3 8 9 19 17 25 17 5 0 13 7 16 16 4 9 9 14 13 10 4 -3
15 6 26 21 13 19 17 21 13 8 -5 -14 1 -11 22 12 17 17 33 29 36 26 3 -4 6 1 6
11 0 9 4 15 9 11 6 -3 14 3 20 12 6 10 11 14 11 9 0 -5 11 3 25 18 14 15 25
24 25 21 0 -3 18 13 40 35 22 22 40 37 40 33 0 -4 5 0 11 10 6 9 14 15 20 12
5 -4 9 -1 9 5 0 6 7 18 15 26 8 9 15 13 15 10 0 -3 23 17 50 44 28 28 56 50
62 50 6 0 9 3 5 6 -7 7 41 54 55 54 5 0 7 4 3 9 -3 5 4 12 15 16 11 3 20 10
20 15 0 4 30 40 68 78 82 85 136 145 137 152 0 3 15 20 33 38 17 17 32 36 32
42 0 5 7 10 16 10 8 0 12 5 9 10 -3 5 -1 10 5 10 6 0 8 4 5 10 -3 5 1 10 10
10 9 0 13 5 10 10 -3 6 1 13 9 16 9 3 16 12 16 20 0 7 9 18 20 24 11 6 18 14
16 19 -3 4 4 15 15 24 11 10 17 23 13 29 -5 7 -2 9 9 5 12 -4 14 -2 10 10 -4
11 -2 14 5 9 7 -4 12 -1 12 7 0 8 9 22 20 32 10 9 18 22 17 29 -1 6 3 10 10 9
8 -2 10 4 6 14 -4 11 -3 14 5 9 10 -6 17 7 10 17 -1 1 10 15 25 31 15 16 27
33 27 37 0 5 8 18 18 29 9 11 17 24 16 28 0 4 6 13 13 20 7 8 10 18 7 24 -4 6
-3 8 3 5 5 -3 20 14 32 38 12 25 27 45 32 45 5 0 8 3 8 8 -3 20 2 33 11 27 6
-4 10 -3 9 2 -3 17 1 32 14 45 6 8 26 41 42 73 17 33 33 62 38 63 4 2 5 8 1
13 -3 5 0 9 5 9 6 0 10 3 9 8 -3 9 54 125 65 133 5 3 8 9 8 13 -3 24 1 36 10
31 6 -4 9 -1 8 6 -2 8 5 29 14 47 10 18 15 38 11 44 -5 7 -3 8 6 3 10 -6 12
-4 7 8 -3 10 -3 17 2 17 11 0 31 46 31 70 0 11 5 20 10 20 6 0 10 8 10 19 0
10 7 24 15 31 11 9 12 16 5 25 -7 9 -6 16 5 25 8 7 12 16 9 21 -3 5 0 9 6 9 7
0 10 7 6 15 -3 8 -1 15 5 15 6 0 7 5 4 10 -3 6 -1 10 5 10 6 0 9 4 5 10 -3 5
0 19 6 32 30 57 31 60 17 52 -8 -4 -6 1 3 12 9 10 14 24 12 31 -2 6 1 14 6 18
6 3 11 17 11 31 0 16 4 23 11 18 7 -4 7 1 -1 16 -8 15 -8 20 -1 16 7 -5 11 2
11 18 0 14 4 27 10 31 5 3 6 13 3 22 -4 11 -3 14 5 9 15 -9 16 6 1 21 -8 8 -7
13 2 18 8 6 10 4 4 -5 -5 -9 -4 -11 4 -6 6 4 9 11 6 16 -3 5 1 27 9 49 9 27
10 38 2 34 -6 -4 -6 -1 1 9 7 8 14 27 15 42 1 14 7 26 13 26 5 0 3 4 -5 10
-12 8 -12 10 3 16 14 5 15 9 6 20 -6 8 -7 14 -2 14 5 0 10 6 11 13 7 79 12
101 23 108 8 5 9 9 4 9 -6 0 -11 9 -11 19 0 11 5 17 10 14 5 -4 7 3 4 15 -4
12 -2 22 2 22 4 0 6 10 2 22 -3 14 -2 19 6 14 9 -5 9 0 2 19 -7 17 -7 24 0 20
6 -3 10 -1 10 4 0 6 -6 11 -12 11 -10 0 -10 2 0 9 7 4 14 25 15 47 1 21 6 45
10 52 5 7 3 12 -5 12 -9 0 -9 3 2 10 11 7 11 10 2 10 -7 0 -10 5 -7 10 4 6 10
8 15 5 5 -3 5 8 0 24 -4 16 -5 32 -2 36 10 9 10 866 0 893 -6 17 -5 21 4 16 7
-4 8 -3 4 5 -4 6 -8 29 -8 51 0 23 -5 40 -12 40 -6 0 -4 5 4 10 12 8 12 10 1
10 -10 0 -11 3 -2 13 8 10 7 17 -1 25 -7 7 -9 12 -5 12 3 0 2 11 -3 24 -6 16
-5 28 3 36 9 10 9 12 -3 8 -12 -4 -15 3 -14 36 1 22 -3 47 -9 54 -6 8 -5 12 4
12 9 1 8 5 -5 15 -12 9 -15 15 -7 15 10 0 11 3 2 13 -6 8 -8 17 -4 20 3 4 0
13 -7 22 -9 11 -9 15 -1 15 7 0 9 5 4 13 -4 6 -6 20 -5 30 2 11 -3 17 -15 17
-11 0 -14 3 -7 8 6 4 9 16 7 27 -3 11 -5 28 -6 38 -1 9 -4 17 -7 17 -5 0 -10
24 -12 60 0 8 -5 21 -11 28 -5 6 -6 12 -1 12 5 0 2 5 -6 10 -12 8 -12 10 -1
10 10 0 11 3 2 13 -6 8 -8 17 -4 20 3 4 1 7 -5 7 -7 0 -12 5 -12 11 0 5 6 7
13 3 6 -4 4 2 -7 14 -10 12 -16 28 -13 37 4 8 2 15 -4 15 -5 0 -9 6 -7 13 1 6
-4 23 -11 36 -9 17 -10 21 -1 16 7 -4 5 3 -3 16 -9 13 -16 27 -17 32 0 4 0 8
-1 10 0 1 -3 11 -5 22 -6 27 -9 36 -23 68 -6 16 -8 33 -5 39 4 7 2 8 -4 4 -11
-6 -18 19 -13 47 0 4 -4 7 -10 7 -5 0 -7 5 -4 10 3 6 2 10 -4 10 -5 0 -8 8 -7
18 2 9 -4 22 -13 29 -11 9 -12 12 -3 13 7 0 10 5 7 10 -4 6 -12 7 -18 4 -7 -4
-9 -4 -5 0 7 8 -19 93 -34 113 -5 7 -6 18 -2 24 4 8 3 9 -4 5 -7 -4 -12 -2
-12 4 0 6 -10 32 -21 58 -12 26 -22 49 -21 52 0 3 -4 11 -10 18 -6 7 -8 15 -5
19 4 3 -3 14 -15 24 -11 11 -18 19 -14 19 5 0 -4 20 -18 44 -14 25 -26 52 -26
60 0 9 -4 16 -8 16 -4 0 -14 16 -21 35 -7 19 -17 35 -22 35 -6 0 -7 5 -4 10 3
6 1 10 -5 10 -7 0 -10 7 -6 15 3 8 2 15 -3 15 -4 0 -14 12 -21 28 -8 15 -22
39 -32 53 -10 14 -15 29 -11 33 3 3 1 6 -5 6 -6 0 -14 10 -18 22 -3 12 -12 28
-18 35 -29 33 -34 41 -29 47 4 3 1 6 -5 6 -7 0 -12 7 -12 15 0 7 -8 18 -17 24
-10 5 -16 11 -13 13 6 4 -33 68 -42 68 -4 0 -8 9 -8 20 0 11 -7 20 -16 20 -8
0 -12 5 -9 10 3 6 1 10 -4 10 -6 0 -11 7 -11 15 0 9 -6 18 -14 21 -9 3 -12 12
-9 21 4 9 2 14 -3 11 -5 -3 -15 0 -22 8 -7 8 -10 14 -7 14 4 0 -1 7 -9 16 -9
8 -13 20 -10 26 4 7 2 8 -5 4 -6 -4 -14 0 -18 11 -3 10 -19 30 -35 45 -15 15
-28 34 -28 43 0 9 -4 14 -9 11 -5 -4 -15 7 -22 23 -7 16 -17 27 -21 25 -4 -3
-8 0 -8 7 0 6 -8 19 -18 28 -10 9 -21 24 -25 34 -3 9 -14 17 -23 17 -10 0 -15
3 -11 6 3 3 -4 17 -16 29 -12 13 -33 37 -47 53 -14 17 -28 28 -32 26 -4 -3 -5
3 -1 12 4 11 2 15 -4 11 -6 -4 -14 0 -17 9 -3 8 -11 12 -17 8 -7 -4 -9 -3 -6
3 4 6 0 13 -8 17 -8 3 -15 15 -15 26 0 11 -3 19 -7 19 -19 -3 -34 2 -29 9 3 5
-6 15 -19 22 -14 7 -25 17 -25 21 0 5 -11 19 -25 33 -14 14 -25 23 -25 20 0
-3 -22 18 -48 45 -27 28 -52 48 -55 44 -4 -3 -7 1 -7 10 0 10 -4 17 -10 17 -5
0 -28 17 -51 38 -22 20 -56 51 -75 69 -19 17 -34 29 -34 26 0 -3 -9 4 -20 17
-11 13 -20 20 -20 17 0 -4 -9 1 -19 11 -37 33 -50 42 -61 42 -6 0 -8 5 -5 10
3 6 0 10 -8 10 -8 0 -17 7 -21 15 -3 8 -12 15 -21 15 -8 0 -15 5 -15 11 0 5
-4 8 -8 5 -5 -3 -14 4 -22 14 -8 10 -17 17 -22 14 -4 -3 -11 2 -14 10 -3 9
-11 16 -16 16 -6 0 -19 9 -29 21 -9 11 -20 20 -23 20 -20 -3 -26 0 -21 9 3 6
-3 10 -14 10 -12 0 -21 5 -21 10 0 6 -5 10 -11 10 -6 0 -17 7 -26 15 -8 8 -19
12 -25 9 -7 -4 -8 -2 -4 4 6 11 3 13 -19 12 -11 -1 -33 25 -28 33 2 4 1 7 -4
6 -20 -3 -34 2 -28 11 3 6 -1 7 -9 4 -9 -3 -16 -1 -16 6 0 6 -4 8 -10 5 -5 -3
-10 -1 -10 5 0 6 -4 8 -10 5 -5 -3 -10 -1 -10 5 0 7 -7 10 -15 6 -8 -3 -14 0
-12 7 1 7 -4 11 -10 9 -7 -1 -13 2 -13 8 0 5 -7 10 -15 10 -8 0 -15 5 -15 11
0 5 -5 7 -10 4 -6 -3 -13 1 -16 10 -6 13 -8 14 -15 3 -7 -10 -9 -9 -9 5 0 10
-4 16 -9 12 -5 -3 -12 -1 -16 5 -3 5 -13 10 -22 10 -9 0 -26 9 -38 20 -12 11
-33 21 -47 22 -17 1 -24 7 -21 15 4 9 0 11 -13 6 -10 -4 -15 -2 -11 3 3 6 -4
11 -15 11 -12 1 -25 8 -29 15 -5 7 -9 9 -9 4 0 -5 -6 -3 -13 3 -8 6 -17 8 -20
4 -4 -3 -7 -1 -7 5 0 7 -7 12 -15 12 -8 0 -15 5 -15 11 0 5 -5 7 -10 4 -6 -4
-18 -1 -26 6 -8 6 -17 9 -21 5 -3 -3 -12 3 -20 14 -8 11 -25 20 -38 20 -13 0
-27 5 -30 10 -4 6 -10 8 -15 5 -5 -3 -11 -1 -15 5 -4 6 -11 8 -16 5 -5 -4 -12
1 -15 10 -6 13 -8 14 -15 3 -7 -11 -9 -11 -9 1 0 7 -6 11 -15 7 -8 -3 -15 -1
-15 4 0 6 -9 10 -21 10 -13 0 -18 4 -13 12 5 8 2 9 -9 5 -9 -3 -19 -2 -23 4
-3 6 -12 8 -20 5 -8 -3 -14 -1 -14 5 0 6 -7 8 -16 5 -8 -3 -12 -2 -9 4 3 6 1
10 -4 10 -6 0 -11 -6 -11 -12 0 -7 -5 -5 -11 5 -6 9 -14 15 -19 12 -5 -3 -11
-1 -15 4 -3 5 -14 8 -25 6 -12 -2 -18 0 -15 6 4 5 -3 9 -14 9 -12 0 -21 6 -21
13 0 8 -4 7 -10 -3 -7 -12 -10 -12 -10 -1 0 7 -6 11 -15 7 -8 -3 -15 -1 -15 5
0 6 -6 9 -12 7 -7 -3 -23 1 -36 8 -14 7 -33 11 -43 9 -11 -2 -19 1 -19 7 0 5
-7 8 -15 4 -8 -3 -21 2 -30 10 -11 12 -15 12 -15 2 0 -9 -3 -10 -8 -2 -4 6
-20 14 -37 17 -16 3 -41 8 -55 11 -52 12 -95 20 -102 18 -5 -1 -8 2 -8 6 0 5
-10 8 -22 7 -13 -1 -28 1 -33 6 -6 4 -20 8 -30 9 -49 1 -75 4 -75 10 0 3 -10
6 -22 7 -48 2 -88 7 -88 13 0 5 -56 10 -137 14 -18 0 -33 3 -33 6 0 5 -57 10
-132 13 -16 0 -28 5 -28 11 0 7 -3 8 -8 1 -9 -13 -42 -16 -42 -4 0 11 -23 7
-32 -6 -5 -6 -8 -6 -8 1 0 7 -44 12 -132 14 -73 1 -155 3 -181 4 -27 0 -50 0
-51 -1z"/>
</g>
</svg>
