<?xml version="1.0" standalone="no"?>
<!DOCTYPE svg PUBLIC "-//W3C//DTD SVG 20010904//EN"
 "http://www.w3.org/TR/2001/REC-SVG-20010904/DTD/svg10.dtd">
<svg version="1.0" xmlns="http://www.w3.org/2000/svg"
 width="1024.000000pt" height="1024.000000pt" viewBox="0 0 1024.000000 1024.000000"
 preserveAspectRatio="xMidYMid meet">
<metadata>
Created by potrace 1.11, written by Peter Selinger 2001-2013
</metadata>
<g transform="translate(0.000000,1024.000000) scale(0.100000,-0.100000)"
fill="#000000" stroke="none">
<path d="M926 8483 c-1 -1 -26 -3 -56 -4 -131 -4 -263 -43 -382 -111 -95 -55
-241 -199 -297 -294 -49 -84 -97 -216 -107 -299 -10 -73 -11 -5229 -1 -5300
11 -84 46 -197 84 -265 127 -234 332 -387 593 -441 64 -14 7133 -20 7260 -7
209 22 383 109 516 258 52 59 76 93 158 225 72 116 154 246 192 305 44 70 242
386 281 450 22 36 231 371 465 746 435 695 466 748 500 844 20 56 21 62 36
142 20 104 0 276 -44 385 -133 329 -393 535 -703 557 -25 2 -246 4 -491 5
l-446 1 1 428 c0 235 -3 463 -7 507 -35 370 -328 677 -702 737 -50 7 -498 11
-1504 12 l-1433 1 -560 559 -560 559 -1395 1 c-768 1 -1397 0 -1398 -1z m3003
-1400 l561 -560 1523 0 c838 0 1540 -3 1560 -7 69 -13 70 -20 71 -444 1 -206
-1 -378 -5 -383 -3 -5 -1045 -9 -2495 -10 -1369 0 -2511 -4 -2539 -9 -27 -5
-65 -11 -84 -15 -67 -12 -188 -66 -257 -114 -86 -61 -169 -148 -229 -243 -26
-40 -55 -84 -64 -98 -9 -14 -48 -77 -85 -140 -37 -63 -80 -135 -95 -160 -30
-49 -447 -736 -491 -810 -134 -223 -373 -616 -378 -622 -10 -10 -8 4092 2
4120 9 26 38 43 85 51 19 3 557 6 1197 5 l1162 -1 561 -560z m5391 -2248 c0
-2 -36 -61 -80 -131 -44 -69 -80 -130 -80 -135 0 -5 -4 -9 -9 -9 -5 0 -11 -6
-13 -13 -3 -14 -199 -329 -209 -337 -3 -3 -8 -10 -10 -16 -2 -5 -40 -67 -84
-137 -44 -70 -84 -135 -90 -145 -28 -49 -210 -338 -216 -342 -3 -3 -8 -10 -10
-16 -8 -21 -384 -619 -391 -622 -5 -2 -8 -8 -8 -12 0 -7 -183 -306 -196 -319
-5 -6 -6573 -5 -6579 1 -3 2 43 84 103 182 59 97 115 190 124 206 10 17 26 43
35 60 10 16 128 212 263 436 135 223 254 422 266 443 18 31 288 480 313 521 6
8 61 99 123 203 l113 187 3317 0 c1825 0 3318 -2 3318 -5z"/>
</g>
</svg>
