<svg xmlns="http://www.w3.org/2000/svg" xmlns:xlink="http://www.w3.org/1999/xlink" version="1.1" x="0px" y="0px" viewBox="0 0 3170.6 639.1" style="enable-background:new 0 0 3170.6 639.1;" xml:space="preserve">
<style type="text/css">
  .st0{fill:white;}
  .st1{fill:#65D760;}
  .st2{fill:#F5CE42;}
  .st3{fill:#FC5F6C;}
  .st4{fill:url(#SVGID_1_);}
  .st5{fill:url(#SVGID_2_);}
</style>
<g id="text">
  <path class="st0" d="M1355.9,191.8v280.8c0,6.9-3.9,10.8-10.8,10.8h-47.5c-6.9,0-10.8-3.9-10.8-10.8V298l-54.9,130.1   c-2.2,5.6-6.5,8.2-12.5,8.2H1190c-6,0-10.4-2.6-12.5-8.2L1122.6,298v174.6c0,6.9-3.9,10.8-10.8,10.8h-47.5   c-6.9,0-10.8-3.9-10.8-10.8V191.8c0-6.9,3.9-10.8,10.8-10.8h47.5h10.4c6,0,10.4,2.6,12.5,8.2l70,166.3l70-166.3   c2.2-5.6,6.5-8.2,12.5-8.2h35h22.9C1352,181,1355.9,184.9,1355.9,191.8z"/>
  <path class="st0" d="M1589.1,427.7v44.9c0,6.9-3.9,10.8-10.8,10.8h-149h-10.8c-6.9,0-10.8-3.9-10.8-10.8V191.8   c0-6.9,3.9-10.8,10.8-10.8h58.3h99.4c6.9,0,10.8,3.9,10.8,10.8v44.9c0,6.9-3.9,10.8-10.8,10.8h-99.4v50.5h88.6   c6.9,0,10.8,3.9,10.8,10.8v43.2c0,6.9-3.9,10.8-10.8,10.8h-88.6v54h101.5C1585.3,416.9,1589.1,420.8,1589.1,427.7z"/>
  <path class="st0" d="M1930.4,191.8v280.8c0,6.9-3.9,10.8-10.8,10.8h-47.5c-6.9,0-10.8-3.9-10.8-10.8V298l-54.9,130.1   c-2.2,5.6-6.5,8.2-12.5,8.2h-29.4c-6,0-10.4-2.6-12.5-8.2L1697.1,298v174.6c0,6.9-3.9,10.8-10.8,10.8h-47.5   c-6.9,0-10.8-3.9-10.8-10.8V191.8c0-6.9,3.9-10.8,10.8-10.8h47.5h10.4c6,0,10.4,2.6,12.5,8.2l70,166.3l70-166.3   c2.2-5.6,6.5-8.2,12.5-8.2h35h22.9C1926.5,181,1930.4,184.9,1930.4,191.8z"/>
  <path class="st0" d="M1969.3,332.2c0-89,66.1-157.3,157.3-157.3c69.1,0,127.9,43.2,145.6,106.3c1.7,7.3-2.2,12.1-9.5,12.1h-51   c-6,0-9.5-3-12.1-8.6c-12.1-26.4-40.2-42.3-73-42.3c-53.6,0-88.1,35.9-88.1,89.9s34.6,89.9,88.1,89.9c32.8,0,60.9-16,73-42.3   c2.6-5.6,6-8.6,12.1-8.6h51c7.3,0,11.2,4.3,9.5,11.2c-16.8,63.1-76,107.1-145.6,107.1C2035.4,489.4,1969.3,421.2,1969.3,332.2z"/>
  <path class="st0" d="M2292,332.2c0-89,70.4-157.3,157.3-157.3c86.8,0,157.2,68.3,157.2,157.3c0,89-70.4,157.2-157.2,157.2   C2362.4,489.4,2292,421.2,2292,332.2z M2537.4,332.2c0-54-38.9-89.9-88.1-89.9s-88.1,35.9-88.1,89.9s38.9,89.9,88.1,89.9   S2537.4,386.2,2537.4,332.2z"/>
  <path class="st0" d="M2921.9,332.2c0,85.5-63.5,151.2-146.9,151.2h-108h-10.8c-6.9,0-10.8-3.9-10.8-10.8V191.8   c0-6.9,3.9-10.8,10.8-10.8h58.3h60.5C2858.4,181,2921.9,246.7,2921.9,332.2z M2855.3,332.2c0-51.8-32.8-84.7-80.4-84.7h-60.5v169.3   h60.5C2822.5,416.9,2855.3,384,2855.3,332.2z"/>
  <path class="st0" d="M3142.2,427.7v44.9c0,6.9-3.9,10.8-10.8,10.8h-149h-10.8c-6.9,0-10.8-3.9-10.8-10.8V191.8   c0-6.9,3.9-10.8,10.8-10.8h58.3h99.4c6.9,0,10.8,3.9,10.8,10.8v44.9c0,6.9-3.9,10.8-10.8,10.8h-99.4v50.5h88.6   c6.9,0,10.8,3.9,10.8,10.8v43.2c0,6.9-3.9,10.8-10.8,10.8h-88.6v54h101.5C3138.3,416.9,3142.2,420.8,3142.2,427.7z"/>
</g>
<g id="cards">
  <path class="st1" d="M513.6,219.3c-32.7,0-65.5,0-98.2,0c-3.2,0-3.2,0-3.2-3.1c0-0.4,0-0.8,0-1.3c0.1-57.3,0.2-114.6,0.1-172   c0-5.4,2-9.4,6.5-12.2c1.6-1,3.6-1.3,5.4-1.9c0.6-0.2,1.3-0.1,2-0.1c58.1,0,116.2,0,174.3,0c4.3,0,8,1.1,10.9,4.3   c2.2,2.4,3.5,5.3,3.5,8.7c0,7.7,0,15.4,0,23.1c0,50.8,0.1,101.6,0.1,152.4c0,1.9-0.8,2-2.3,2c-20.8,0-41.6,0-62.5,0   C538,219.3,525.8,219.3,513.6,219.3z"/>
  <path class="st2" d="M305.4,219.3c-28.3,0-56.7,0-85,0c-1.7,0-2.7-0.5-3.6-2.1c-5-8.8-10.1-17.5-15.1-26.2   c-4.4-7.7-2.3-15.4,5.4-19.8c50.1-28.9,100.1-57.8,150.2-86.7c8.1-4.6,15.6-2.6,20.2,5.4c4.9,8.5,9.8,16.9,14.7,25.5   c0.6,1.1,1,2.5,1,3.8c0.1,32.8,0,65.6,0.1,98.4c0,2-1.1,1.8-2.4,1.8c-22.8,0-45.6,0-68.5,0C316.7,219.3,311,219.3,305.4,219.3z"/>
  <path class="st3" d="M719.8,219.3c-27.5,0-55.1,0-82.6,0c-3.3,0-3.3,0-3.3-3.2c0-34.3,0-68.6,0-103c0-1.8,0.4-3.4,1.3-5   c3.7-6.4,7.4-12.8,11.1-19.1c4.4-7.5,12.2-9.6,19.7-5.3c50.3,29,100.6,58,150.9,86.9c7.7,4.4,9.8,12.1,5.3,19.8   c-5.2,9-10.4,18-15.6,27c-0.8,1.3-1.6,1.8-3.1,1.8C775.6,219.3,747.7,219.3,719.8,219.3z"/>
</g>
<g id="whale">
  <linearGradient id="SVGID_1_" gradientUnits="userSpaceOnUse" x1="142.7643" y1="-89.6487" x2="691.9941" y2="564.8979">
    <stop offset="0" style="stop-color: rgb(255, 0, 0);"/>
    <stop offset="1" style="stop-color: rgb(236, 96, 172);color: rgb(236, 96, 172);"/>
  </linearGradient>
  <path class="st4" d="M832.3,233.7c-101.5,0-398.1-0.4-581.3-0.2c-5.9-0.4-12.1-0.9-17.8-1.7c-15-1.9-27.5-6.9-39-12.1   c-8.5-3.8-23.2-13.3-36.3-22.8c-7.1-5.2-14.3-11-18.8-21.5c-1.8-4.1-3-12.3-3.9-19.9c1.1-11.8,9.9-20.6,14.7-25.8   c15.5-16.7,30.5-36.8,36.3-56.4c8.7-29.4,2-66.9-14.8-72.5c-17.8-6-44.2,24.8-56.4,47c-8.8,16-13.7,33.7-14.8,52.4   c-6-16-14.5-30.4-25.5-43c-14-16.1-45.9-45.1-63.2-36.3C-7,30.4,0,78.8,10.2,106.9c6.7,18.4,19.3,29,24.2,32.2   c13.2,8.7,24,7.7,39,18.8c1.6,1.2,3.2,3.5,4.8,6.2c1.9,7,4.5,14.3,4.6,20.6c0.5,19.6,1.9,38.8,4,55.7c4,31.8,11.7,60.8,22.8,93.4   c6,17.7,12.6,34.9,19.2,50.3c31.3,76.5,86.2,140.6,155.4,183.3c9.8-20,26.3-41.5,48.1-60.9C381.3,463.1,438,447,459,470.7   c21,23.6-1.5,78.1-50.4,121.5c-7.8,6.9-15.8,13.2-23.8,18.7c31.6,8.5,64.9,13.1,99.1,13.1c108.6,0,206.5-45.9,276.2-119.5   c-13.8-0.6-29-3.8-39.5-9.5c-25-13.5-21.5-32.5-21.5-32.5s2.5-14.5,31.5,4.5c29.5,19.3,56.5,1.7,63.2-3.4   c39.7-55.3,65.6-121.7,72.3-193.8C867.3,257.2,861.5,233.7,832.3,233.7z M554.9,396.3c-14.2,0-25.7-7.9-25.7-17.7   c0-9.8,11.5-17.7,25.7-17.7c14.2,0,25.7,7.9,25.7,17.7C580.6,388.4,569.1,396.3,554.9,396.3z"/>
  <linearGradient id="SVGID_2_" gradientUnits="userSpaceOnUse" x1="285.1167" y1="549.417" x2="477.8795" y2="549.417" style="&#10;    color: rgb(146, 6, 23);&#10;">
    <stop offset="0" style="stop-color: rgb(255, 0, 0);"/>
    <stop offset="1" style="stop-color: rgb(146, 6, 23);"/>
  </linearGradient>
  <path class="st5" d="M470,470.7c-21-23.6-77.7-7.6-126.6,35.9S272,604.5,293,628.2s77.7,7.6,126.6-35.9   C468.5,548.7,491,494.3,470,470.7z"/>
</g>
</svg>