<?xml version="1.0" standalone="no"?>
<!DOCTYPE svg PUBLIC "-//W3C//DTD SVG 20010904//EN"
 "http://www.w3.org/TR/2001/REC-SVG-20010904/DTD/svg10.dtd">
<svg version="1.0" xmlns="http://www.w3.org/2000/svg"
 width="1024.000000pt" height="1024.000000pt" viewBox="0 0 1024.000000 1024.000000"
 preserveAspectRatio="xMidYMid meet">
<metadata>
Created by potrace 1.11, written by Peter Selinger 2001-2013
</metadata>
<g transform="translate(0.000000,1024.000000) scale(0.100000,-0.100000)"
fill="#000000" stroke="none">
<path d="M6430 10080 c-14 -4 -39 -14 -55 -23 -44 -23 -762 -747 -776 -782
-16 -39 -13 -109 7 -147 9 -17 70 -85 137 -151 l120 -120 -1494 -1488 c-3890
-3872 -3681 -3659 -3841 -3909 -167 -259 -278 -560 -324 -880 -29 -199 -23
-591 11 -710 2 -8 7 -31 10 -50 13 -79 60 -232 102 -335 147 -354 418 -699
733 -930 300 -221 658 -352 1035 -382 570 -44 1069 100 1505 435 54 41 1022
1002 2678 2656 1426 1425 2595 2592 2597 2594 2 2 57 -50 122 -115 135 -135
169 -162 211 -167 72 -8 91 8 485 401 208 208 385 391 393 406 20 38 20 96 0
134 -22 43 -3510 3528 -3550 3547 -41 20 -75 25 -106 16z m950 -2719 c445
-445 810 -812 810 -816 0 -3 -60 -66 -134 -138 -247 -243 -1178 -1161 -1241
-1224 l-62 -63 -1623 0 -1622 0 1526 1525 c840 839 1529 1525 1532 1525 2 0
368 -364 814 -809z"/>
</g>
</svg>
